# File created by Blade
# Date/Time:  Tue Sep 30 19:29:51 2014
#---------------------------------------------------------
:version 1.10
:name HOM
:units
  mass 1.0
  length 1.000000
  angle deg
:documentation
     Acclaim Skeleton File
:root
   axis xyz
   order TX TY TZ RX RY RZ
   position 0.000000 0.000000 0.000000
   orientation 0 0 0
:bonedata
   begin
      id 1
      name RightUpLeg_dum
      direction -1.000000 0.000000 0.000000
      length 3.766986
      axis 0.0 0.0 0.0 xyz
   end
   begin
      id 2
      name LeftUpLeg_dum
      direction 1.000000 0.000000 0.000000
      length 3.766986
      axis 0.0 0.0 0.0 xyz
   end
   begin
      id 3
      name Spine_dum
      direction 0.000000 1.000000 0.000000
      length 7.779697
      axis 0.0 0.0 0.0 xyz
   end
   begin
      id 4
      name RightUpLeg
      direction 0.000000 -1.000000 0.000000
      length 18.017682
      axis 0.0 0.0 0.0 xyz
      dof rx ry rz
   end
   begin
      id 5
      name RightLeg
      direction 0.000000 -1.000000 0.000000
      length 16.881075
      axis 0.0 0.0 0.0 xyz
      dof rx ry rz
   end
   begin
      id 6
      name RightFoot
      direction 0.000000 -0.258819 0.965926
      length 5.770812
      axis 15.0 0.0 0.0 xyz
      dof rx ry rz
   end
   begin
      id 7
      name RightToeBase
      direction 0.000000 0.000000 1.000000
      length 2.952750
      axis 0.0 0.0 0.0 xyz
      dof rx ry rz
   end
   begin
      id 8
      name LeftUpLeg
      direction 0.000000 -1.000000 0.000000
      length 18.017682
      axis 0.0 0.0 0.0 xyz
      dof rx ry rz
   end
   begin
      id 9
      name LeftLeg
      direction 0.000000 -1.000000 0.000000
      length 16.881075
      axis 0.0 0.0 0.0 xyz
      dof rx ry rz
   end
   begin
      id 10
      name LeftFoot
      direction 0.000000 -0.258819 0.965926
      length 5.770812
      axis 15.0 0.0 0.0 xyz
      dof rx ry rz
   end
   begin
      id 11
      name LeftToeBase
      direction 0.000000 0.000000 1.000000
      length 2.952750
      axis 0.0 0.0 0.0 xyz
      dof rx ry rz
   end
   begin
      id 12
      name Spine
      direction 0.000000 1.000000 0.000000
      length 0.000000
      axis 0.0 0.0 0.0 xyz
      dof rx ry rz
   end
   begin
      id 13
      name Spine_dum1
      direction 0.000000 1.000000 0.000000
      length 10.941760
      axis 0.0 0.0 0.0 xyz
   end
   begin
      id 14
      name Spine_dum2
      direction 0.000000 1.000000 0.000000
      length 10.941760
      axis 0.0 0.0 0.0 xyz
   end
   begin
      id 15
      name Spine_dum3
      direction 0.000000 1.000000 0.000000
      length 16.646042
      axis 0.0 0.0 0.0 xyz
   end
   begin
      id 16
      name RightShoulder
      direction -1.000000 0.000000 0.000000
      length 7.708937
      axis 0.0 0.0 90.0 xyz
      dof rx ry rz
   end
   begin
      id 17
      name RightArm
      direction -1.000000 0.000000 0.000000
      length 11.521345
      axis 0.0 0.0 90.0 xyz
      dof rx ry rz
   end
   begin
      id 18
      name RightForeArm
      direction -1.000000 0.000000 0.000000
      length 10.175898
      axis 0.0 0.0 90.0 xyz
      dof ry rz rx
   end
   begin
      id 19
      name RightHand
      direction -1.000000 0.000000 0.000000
      length 0.000000
      axis 0.0 0.0 90.0 xyz
      dof rx ry rz
   end
   begin
      id 20
      name RightHand_dum1
      direction -1.000000 0.000000 0.000000
      length 3.937000
      axis 0.0 0.0 90.0 xyz
   end
   begin
      id 21
      name RightHand_dum2
      direction 0.000000 0.000000 0.000000
      length 0.000000
      axis 0.0 0.0 90.0 xyz
   end
   begin
      id 22
      name RightHandThumb1
      direction 0.000000 0.000000 1.000000
      length 3.937000
      axis 0.0 0.0 90.0 xyz
      dof rx rz ry
   end
   begin
      id 23
      name LeftShoulder
      direction 1.000000 0.000000 0.000000
      length 7.708937
      axis 0.0 0.0 -90.0 xyz
      dof rx ry rz
   end
   begin
      id 24
      name LeftArm
      direction 1.000000 0.000000 0.000000
      length 11.521345
      axis 0.0 0.0 -90.0 xyz
      dof rx ry rz
   end
   begin
      id 25
      name LeftForeArm
      direction 1.000000 0.000000 0.000000
      length 10.175898
      axis 0.0 0.0 -90.0 xyz
      dof ry rz rx
   end
   begin
      id 26
      name LeftHand
      direction 1.000000 0.000000 0.000000
      length 0.000000
      axis 0.0 0.0 -90.0 xyz
      dof rx ry rz
   end
   begin
      id 27
      name LeftHand_dum1
      direction 1.000000 0.000000 0.000000
      length 3.937000
      axis 0.0 0.0 -90.0 xyz
   end
   begin
      id 28
      name LeftHand_dum2
      direction 0.000000 0.000000 0.000000
      length 0.000000
      axis 0.0 0.0 -90.0 xyz
   end
   begin
      id 29
      name LeftHandThumb1
      direction 0.000000 0.000000 1.000000
      length 3.937000
      axis 0.0 0.0 -90.0 xyz
      dof rx rz ry
   end
   begin
      id 30
      name Head
      direction 0.000000 1.000000 0.000000
      length 4.527550
      axis 0.0 0.0 0.0 xyz
      dof rx ry rz
   end
:hierarchy
   begin
      root RightUpLeg_dum LeftUpLeg_dum Spine_dum
      RightUpLeg_dum RightUpLeg
      LeftUpLeg_dum LeftUpLeg
      Spine_dum Spine
      RightUpLeg RightLeg
      RightLeg RightFoot
      RightFoot RightToeBase
      LeftUpLeg LeftLeg
      LeftLeg LeftFoot
      LeftFoot LeftToeBase
      Spine Spine_dum1 Spine_dum2 Spine_dum3
      Spine_dum1 RightShoulder
      Spine_dum2 LeftShoulder
      Spine_dum3 Head
      RightShoulder RightArm
      RightArm RightForeArm
      RightForeArm RightHand
      RightHand RightHand_dum1 RightHand_dum2
      RightHand_dum2 RightHandThumb1
      LeftShoulder LeftArm
      LeftArm LeftForeArm
      LeftForeArm LeftHand
      LeftHand LeftHand_dum1 LeftHand_dum2
      LeftHand_dum2 LeftHandThumb1
   end

# File created by Blade
# Date/Time:  Mon Sep 22 17:46:01 2014
# Frame Rate: 120.000 fps
#------------------------------------------------------
:FULLY-SPECIFIED
:DEGREES
709
root 5.459750 37.658819 5.346927 -12.975508 30.285015 -7.592261
RightUpLeg -26.270440 31.551095 -9.164506
RightLeg 93.929529 -0.000000 -0.000000
RightFoot 1.673128 -28.032277 4.643122
RightToeBase -6.218241 -0.000000 0.000000
LeftUpLeg 14.951624 -26.216233 -4.766374
LeftLeg 5.589424 -0.000000 -0.000000
LeftFoot -9.043716 4.129691 -8.040366
LeftToeBase 5.558067 -0.000000 -0.000000
Spine 12.282375 -21.651202 -4.660293
RightShoulder -1.470606 -32.572461 -6.111795
RightArm 20.214321 -28.419010 61.842023
RightForeArm 5.585538 -0.000000 41.034360
RightHand -3.876570 0.000000 -6.879376
RightHandThumb1 -24.326973 -0.000000 -32.862282
LeftShoulder -14.405573 31.938315 0.880700
LeftArm 64.605649 -5.475977 -65.408911
LeftForeArm 16.686687 -0.000000 82.755994
LeftHand -22.142659 0.000000 16.638675
LeftHandThumb1 -26.253704 0.000000 33.147579
Head 22.273279 -9.605844 12.002357
710
root 5.457375 37.649269 5.337563 -12.885705 30.187078 -7.506323
RightUpLeg -26.255396 31.491610 -8.973978
RightLeg 93.321695 -0.000000 -0.000000
RightFoot 1.704279 -28.117419 4.689899
RightToeBase -6.136651 -0.000000 0.000000
LeftUpLeg 14.829389 -26.175681 -4.816127
LeftLeg 5.729250 -0.000000 -0.000000
LeftFoot -9.130411 4.170605 -8.012657
LeftToeBase 5.516344 -0.000000 -0.000000
Spine 12.218145 -21.587728 -4.716762
RightShoulder -1.451435 -32.567274 -6.190696
RightArm 20.226298 -28.465297 61.856107
RightForeArm 5.553456 -0.000000 41.204791
RightHand -3.843013 -0.000000 -6.913248
RightHandThumb1 -24.326973 -0.000000 -32.862282
LeftShoulder -14.401916 31.985265 0.866494
LeftArm 64.607886 -5.567477 -65.415674
LeftForeArm 16.595127 0.000000 82.783446
LeftHand -22.033785 -0.000000 16.766323
LeftHandThumb1 -26.253704 0.000000 33.147579
Head 22.282731 -9.589601 11.968282
711
root 5.454895 37.638849 5.325908 -12.772198 30.087731 -7.401350
RightUpLeg -26.281935 31.409578 -8.822785
RightLeg 92.729251 -0.000000 -0.000000
RightFoot 1.740546 -28.110785 4.623600
RightToeBase -6.087413 -0.000000 0.000000
LeftUpLeg 14.688339 -26.121074 -4.872957
LeftLeg 5.862562 -0.000000 -0.000000
LeftFoot -9.189635 4.219060 -7.930338
LeftToeBase 5.340774 -0.000000 -0.000000
Spine 12.141903 -21.508375 -4.783616
RightShoulder -1.473839 -32.583867 -6.237427
RightArm 20.257452 -28.473088 61.844228
RightForeArm 5.385502 0.000000 41.396502
RightHand -3.809848 -0.000000 -6.756978
RightHandThumb1 -24.326973 -0.000000 -32.862282
LeftShoulder -14.372809 31.965697 0.876712
LeftArm 64.544060 -5.629629 -65.402341
LeftForeArm 16.522712 -0.000000 82.849729
LeftHand -22.065390 -0.000000 16.823699
LeftHandThumb1 -26.253704 0.000000 33.147579
Head 22.294265 -9.599880 11.905433
712
root 5.451504 37.627032 5.312983 -12.635205 29.969786 -7.274866
RightUpLeg -26.348995 31.349047 -8.702405
RightLeg 92.165181 -0.000000 -0.000000
RightFoot 1.736799 -28.051639 4.778900
RightToeBase -6.187459 -0.000000 0.000000
LeftUpLeg 14.538239 -26.055036 -4.942684
LeftLeg 5.992591 -0.000000 -0.000000
LeftFoot -9.242900 4.274312 -7.813293
LeftToeBase 5.152362 -0.000000 -0.000000
Spine 12.045079 -21.413470 -4.864061
RightShoulder -1.475937 -32.616099 -6.288658
RightArm 20.285664 -28.502517 61.831161
RightForeArm 5.369330 -0.000000 41.595463
RightHand -3.748767 -0.000000 -6.696373
RightHandThumb1 -24.326973 -0.000000 -32.862282
LeftShoulder -14.350552 31.894295 0.886511
LeftArm 64.434885 -5.675996 -65.362835
LeftForeArm 16.408103 -0.000000 82.942789
LeftHand -22.231367 -0.000000 16.753969
LeftHandThumb1 -26.253704 0.000000 33.147579
Head 22.314152 -9.588606 11.853583
713
root 5.448785 37.616772 5.301394 -12.491055 29.831982 -7.161320
RightUpLeg -26.432011 31.274359 -8.565787
RightLeg 91.617056 -0.000000 -0.000000
RightFoot 1.751482 -28.005981 4.762832
RightToeBase -6.172958 -0.000000 0.000000
LeftUpLeg 14.389550 -25.945775 -4.981685
LeftLeg 6.075523 -0.000000 -0.000000
LeftFoot -9.322288 4.330828 -7.799287
LeftToeBase 5.191755 -0.000000 -0.000000
Spine 11.918325 -21.316078 -4.917834
RightShoulder -1.462347 -32.652386 -6.336577
RightArm 20.298997 -28.533112 61.807361
RightForeArm 5.375082 0.000000 41.774055
RightHand -3.716856 -0.000000 -6.640088
RightHandThumb1 -24.326973 -0.000000 -32.862282
LeftShoulder -14.379300 31.959300 0.850451
LeftArm 64.461204 -5.736402 -65.349300
LeftForeArm 16.366893 -0.000000 82.972205
LeftHand -22.135959 -0.000000 16.769368
LeftHandThumb1 -26.253704 0.000000 33.147579
Head 22.358677 -9.569896 11.805103
714
root 5.443293 37.604947 5.289094 -12.394767 29.694915 -6.998634
RightUpLeg -26.452699 31.203827 -8.436468
RightLeg 91.097203 -0.000000 -0.000000
RightFoot 1.760359 -27.959810 4.743990
RightToeBase -6.344516 -0.000000 0.000000
LeftUpLeg 14.330999 -25.831419 -5.093463
LeftLeg 6.132681 -0.000000 -0.000000
LeftFoot -9.351354 4.361027 -7.759886
LeftToeBase 5.123628 -0.000000 -0.000000
Spine 11.945700 -21.164972 -5.125030
RightShoulder -1.478499 -32.594376 -6.290927
RightArm 20.256414 -28.600052 61.789203
RightForeArm 5.373006 -0.000000 41.941759
RightHand -3.698087 -0.000000 -6.577436
RightHandThumb1 -24.326973 -0.000000 -32.862282
LeftShoulder -14.378081 31.885974 0.932061
LeftArm 64.414178 -5.736587 -65.335356
LeftForeArm 16.347971 -0.000000 83.050115
LeftHand -22.158074 -0.000000 16.660016
LeftHandThumb1 -26.253704 0.000000 33.147579
Head 22.317670 -9.894449 11.640969
715
root 5.442322 37.593933 5.278926 -12.314783 29.535400 -6.859870
RightUpLeg -26.454884 31.146166 -8.276328
RightLeg 90.555093 -0.000000 -0.000000
RightFoot 1.808542 -27.940304 4.723429
RightToeBase -6.684245 -0.000000 0.000000
LeftUpLeg 14.311400 -25.722316 -5.203071
LeftLeg 6.148026 -0.000000 -0.000000
LeftFoot -9.373865 4.454519 -7.689061
LeftToeBase 5.024839 -0.000000 -0.000000
Spine 11.943150 -21.043002 -5.243529
RightShoulder -1.452849 -32.584461 -6.332147
RightArm 20.261424 -28.647326 61.776573
RightForeArm 5.376257 -0.000000 42.082509
RightHand -3.700710 -0.000000 -6.495618
RightHandThumb1 -24.326973 -0.000000 -32.862282
LeftShoulder -14.421425 31.903894 0.898080
LeftArm 64.435399 -5.795291 -65.299540
LeftForeArm 16.330119 -0.000000 83.114536
LeftHand -22.141932 -0.000000 16.583069
LeftHandThumb1 -26.253704 0.000000 33.147579
Head 22.293630 -9.879083 11.585772
716
root 5.444678 37.584038 5.271784 -12.258771 29.345859 -6.752972
RightUpLeg -26.448214 31.086636 -8.083228
RightLeg 90.055683 -0.000000 -0.000000
RightFoot 1.687234 -27.794035 4.847947
RightToeBase -6.584719 -0.000000 0.000000
LeftUpLeg 14.333260 -25.612219 -5.296479
LeftLeg 6.119237 -0.000000 -0.000000
LeftFoot -9.400188 4.569375 -7.614901
LeftToeBase 5.028994 -0.000000 -0.000000
Spine 11.917229 -20.913270 -5.259915
RightShoulder -1.416174 -32.573961 -6.451259
RightArm 20.259205 -28.688716 61.817833
RightForeArm 5.356216 -0.000000 42.174609
RightHand -3.667489 -0.000000 -6.479190
RightHandThumb1 -24.326973 -0.000000 -32.862282
LeftShoulder -14.462579 31.936357 0.772881
LeftArm 64.452399 -5.884418 -65.213471
LeftForeArm 16.271884 -0.000000 83.187018
LeftHand -22.144489 -0.000000 16.569074
LeftHandThumb1 -26.253704 0.000000 33.147579
Head 22.271966 -9.505577 11.707644
717
root 5.442707 37.573796 5.264794 -12.213693 29.164229 -6.634707
RightUpLeg -26.431244 31.032254 -7.883928
RightLeg 89.569646 -0.000000 -0.000000
RightFoot 1.665742 -27.729181 4.901949
RightToeBase -6.368226 -0.000000 0.000000
LeftUpLeg 14.374701 -25.517057 -5.400729
LeftLeg 6.082652 -0.000000 -0.000000
LeftFoot -9.430778 4.662092 -7.611795
LeftToeBase 4.991481 -0.000000 -0.000000
Spine 11.938805 -20.770959 -5.350560
RightShoulder -1.378303 -32.571069 -6.505630
RightArm 20.262617 -28.728044 61.828700
RightForeArm 5.343166 -0.000000 42.259017
RightHand -3.666290 -0.000000 -6.471469
RightHandThumb1 -24.326973 -0.000000 -32.862282
LeftShoulder -14.494108 31.917665 0.732719
LeftArm 64.439482 -5.921494 -65.145261
LeftForeArm 16.222214 -0.000000 83.257344
LeftHand -22.134117 -0.000000 16.584839
LeftHandThumb1 -26.253704 0.000000 33.147579
Head 22.234721 -9.422670 11.685851
718
root 5.445454 37.563316 5.258764 -12.185724 28.968200 -6.487553
RightUpLeg -26.375441 30.966501 -7.689644
RightLeg 89.105487 -0.000000 -0.000000
RightFoot 1.460359 -27.731625 5.189630
RightToeBase -6.281849 -0.000000 0.000000
LeftUpLeg 14.479591 -25.449314 -5.568229
LeftLeg 6.006476 -0.000000 -0.000000
LeftFoot -9.437012 4.815975 -7.612850
LeftToeBase 4.990837 -0.000000 -0.000000
Spine 11.999605 -20.627566 -5.476365
RightShoulder -1.322613 -32.519695 -6.575723
RightArm 20.232464 -28.782387 61.866514
RightForeArm 5.371738 -0.000000 42.319659
RightHand -3.685797 0.000000 -6.446493
RightHandThumb1 -24.326973 -0.000000 -32.862282
LeftShoulder -14.533391 31.895100 0.714406
LeftArm 64.402561 -5.948916 -65.100237
LeftForeArm 16.202155 -0.000000 83.357974
LeftHand -22.183686 -0.000000 16.599595
LeftHandThumb1 -26.253704 0.000000 33.147579
Head 22.191646 -9.339916 11.642740
719
root 5.446901 37.553065 5.253561 -12.171448 28.761076 -6.334695
RightUpLeg -26.318809 30.918555 -7.494387
RightLeg 88.691287 -0.000000 -0.000000
RightFoot 1.285655 -27.716056 5.524457
RightToeBase -6.243923 -0.000000 0.000000
LeftUpLeg 14.602515 -25.352991 -5.739617
LeftLeg 5.926078 -0.000000 -0.000000
LeftFoot -9.440957 4.972333 -7.554251
LeftToeBase 4.978330 -0.000000 -0.000000
Spine 12.085300 -20.456035 -5.627571
RightShoulder -1.283704 -32.508749 -6.620148
RightArm 20.250409 -28.820873 61.881952
RightForeArm 5.364447 0.000000 42.354846
RightHand -3.718839 0.000000 -6.394360
RightHandThumb1 -24.326973 -0.000000 -32.862282
LeftShoulder -14.564806 31.885335 0.732196
LeftArm 64.375485 -5.964555 -65.069246
LeftForeArm 16.231149 0.000000 83.456071
LeftHand -22.190972 -0.000000 16.535432
LeftHandThumb1 -26.253704 0.000000 33.147579
Head 22.147175 -9.267276 11.635151
